<svg width="1400" height="400" viewBox="0 0 1400 400" fill="none" xmlns="http://www.w3.org/2000/svg">
<g clip-path="url(#clip0_991_1208)">
<rect width="1400" height="400" fill="#042548"/>
<rect y="400" width="400" height="1400" transform="rotate(-90 0 400)" fill="url(#paint0_linear_991_1208)"/>
<path opacity="0.546" d="M851.046 100.08L881.643 94.3592L1088.02 176.352L916.069 313.759L885.486 319.474L851.046 100.08ZM908.913 158.479L921.61 239.148L984.821 188.637L908.913 158.479Z" fill="url(#paint1_linear_991_1208)" stroke="url(#paint2_linear_991_1208)"/>
<path opacity="0.546" d="M1060.19 182.67L1088.1 176.577L917.402 312.981L889.486 319.074L1060.19 182.67Z" fill="url(#paint3_linear_991_1208)" stroke="url(#paint4_linear_991_1208)"/>
<path d="M1058.04 182.363L850.301 100.663L880.701 94.3293L1089.07 177.297L1058.04 182.363Z" fill="url(#paint5_linear_991_1208)"/>
<path opacity="0.546" d="M259.489 78.5554L263.198 95.2779L221.899 210.29L143.167 118.245L139.461 101.53L259.489 78.5554ZM228.435 111.454L184.303 119.921L213.244 153.756L228.435 111.454Z" fill="url(#paint6_linear_991_1208)" stroke="url(#paint7_linear_991_1208)"/>
<path opacity="0.546" d="M217.539 193.983L221.403 209.223L143.246 117.851L139.382 102.61L217.539 193.983Z" fill="url(#paint8_linear_991_1208)" stroke="url(#paint9_linear_991_1208)"/>
<path opacity="0.546" d="M262.5 95.0001L259.5 80.0001L218 194L222 211L262.5 95.0001Z" fill="url(#paint10_linear_991_1208)" stroke="url(#paint11_linear_991_1208)"/>
<g opacity="0.9277">
<g opacity="0.52766">
<path opacity="0.52766" d="M496.294 199L598.999 253.598L500.552 314.72L496.294 199Z" fill="url(#paint12_linear_991_1208)" stroke="url(#paint13_linear_991_1208)"/>
<path opacity="0.52766" d="M501.992 313.663L533.738 256.543L598.306 254.003L501.992 313.663Z" fill="url(#paint14_linear_991_1208)" stroke="url(#paint15_linear_991_1208)"/>
<path opacity="0.52766" d="M497.622 200.081L597.883 253.013L533.605 255.879L497.623 200.082L497.622 200.081Z" fill="url(#paint16_linear_991_1208)" stroke="url(#paint17_linear_991_1208)"/>
</g>
</g>
<g opacity="0.8277">
<path d="M1266.43 27.0004L1346.16 67.6525L1271.09 116.367L1266.43 27L1266.43 27.0004Z" fill="url(#paint18_linear_991_1208)" stroke="url(#paint19_linear_991_1208)" stroke-width="2"/>
<g filter="url(#filter0_f_991_1208)">
<path d="M1272.47 114.773L1296.05 70.5499L1345.51 67.7322L1272.47 114.773Z" fill="url(#paint20_linear_991_1208)"/>
<path d="M1272.47 114.773L1296.05 70.5499L1345.51 67.7322L1272.47 114.773Z" stroke="url(#paint21_linear_991_1208)" stroke-width="2"/>
</g>
<g filter="url(#filter1_f_991_1208)">
<path d="M1267.52 27.8672L1345.56 67.2858L1296.1 70.1987L1267.52 27.8663L1267.52 27.8672Z" fill="url(#paint22_linear_991_1208)"/>
</g>
</g>
<g opacity="0.4277">
<path d="M1130.36 122.599L1173.32 109.545L1163.15 153.276L1130.36 122.599L1130.36 122.599Z" fill="url(#paint23_linear_991_1208)" stroke="url(#paint24_linear_991_1208)" stroke-width="2"/>
<g filter="url(#filter2_f_991_1208)">
<path d="M1163.09 152.219L1156.22 128.031L1173.11 109.798L1163.09 152.219Z" fill="url(#paint25_linear_991_1208)"/>
<path d="M1163.09 152.219L1156.22 128.031L1173.11 109.798L1163.09 152.219Z" stroke="url(#paint26_linear_991_1208)" stroke-width="2"/>
</g>
<g filter="url(#filter3_f_991_1208)">
<path d="M1131.06 122.533L1172.98 109.621L1156.12 127.885L1131.06 122.532L1131.06 122.533Z" fill="url(#paint27_linear_991_1208)"/>
</g>
</g>
<g opacity="0.4277">
<path d="M740.731 319.746L753.265 276.631L784.336 309.043L740.731 319.747L740.731 319.746Z" fill="url(#paint28_linear_991_1208)" stroke="url(#paint29_linear_991_1208)" stroke-width="2"/>
<g filter="url(#filter4_f_991_1208)">
<path d="M783.421 308.512L759.408 301.054L753.365 276.942L783.421 308.512Z" fill="url(#paint30_linear_991_1208)"/>
<path d="M783.421 308.512L759.408 301.054L753.365 276.942L783.421 308.512Z" stroke="url(#paint31_linear_991_1208)" stroke-width="2"/>
</g>
<g filter="url(#filter5_f_991_1208)">
<path d="M741.056 319.128L753.141 276.962L759.23 301.059L741.056 319.128L741.056 319.128Z" fill="url(#paint32_linear_991_1208)"/>
</g>
</g>
<g opacity="0.4277">
<path d="M370.198 252.456L350.085 212.312L394.906 214.967L370.198 252.456L370.198 252.456Z" fill="url(#paint33_linear_991_1208)" stroke="url(#paint34_linear_991_1208)" stroke-width="2"/>
<g filter="url(#filter6_f_991_1208)">
<path d="M393.874 215.2L371.191 226.051L350.37 212.472L393.874 215.2Z" fill="url(#paint35_linear_991_1208)"/>
<path d="M393.874 215.2L371.191 226.051L350.37 212.472L393.874 215.2Z" stroke="url(#paint36_linear_991_1208)" stroke-width="2"/>
</g>
<g filter="url(#filter7_f_991_1208)">
<path d="M370.015 251.781L350.219 212.639L371.064 226.176L370.015 251.782L370.015 251.781Z" fill="url(#paint37_linear_991_1208)"/>
</g>
</g>
<g opacity="0.4277">
<path d="M59.1976 84.4559L39.0854 44.3121L83.9061 46.9669L59.1979 84.4563L59.1976 84.4559Z" fill="url(#paint38_linear_991_1208)" stroke="url(#paint39_linear_991_1208)" stroke-width="2"/>
<g filter="url(#filter8_f_991_1208)">
<path d="M82.8738 47.1997L60.1909 58.0507L39.3703 44.4723L82.8738 47.1997Z" fill="url(#paint40_linear_991_1208)"/>
<path d="M82.8738 47.1997L60.1909 58.0507L39.3703 44.4723L82.8738 47.1997Z" stroke="url(#paint41_linear_991_1208)" stroke-width="2"/>
</g>
<g filter="url(#filter9_f_991_1208)">
<path d="M59.0153 83.7814L39.2189 44.6389L60.064 58.176L59.0148 83.7816L59.0153 83.7814Z" fill="url(#paint42_linear_991_1208)"/>
</g>
</g>
<circle opacity="0.3" cx="85.5" cy="146.5" r="23.5" stroke="url(#paint43_linear_991_1208)" stroke-width="2"/>
<circle opacity="0.3" cx="439.765" cy="135.621" r="39.0469" transform="rotate(75 439.765 135.621)" stroke="url(#paint44_linear_991_1208)" stroke-width="2"/>
<circle opacity="0.3" cx="663.276" cy="291.276" r="19.638" transform="rotate(75 663.276 291.276)" stroke="url(#paint45_linear_991_1208)" stroke-width="2"/>
<circle opacity="0.3" cx="1057.13" cy="102.808" r="26.0467" transform="rotate(75 1057.13 102.808)" stroke="url(#paint46_linear_991_1208)" stroke-width="2"/>
</g>
<defs>
<filter id="filter0_f_991_1208" x="1253.78" y="50.518" width="111.462" height="83.1783" filterUnits="userSpaceOnUse" color-interpolation-filters="sRGB">
<feFlood flood-opacity="0" result="BackgroundImageFix"/>
<feBlend mode="normal" in="SourceGraphic" in2="BackgroundImageFix" result="shape"/>
<feGaussianBlur stdDeviation="8" result="effect1_foregroundBlur_991_1208"/>
</filter>
<filter id="filter1_f_991_1208" x="1251.52" y="11.8663" width="110.033" height="74.3325" filterUnits="userSpaceOnUse" color-interpolation-filters="sRGB">
<feFlood flood-opacity="0" result="BackgroundImageFix"/>
<feBlend mode="normal" in="SourceGraphic" in2="BackgroundImageFix" result="shape"/>
<feGaussianBlur stdDeviation="8" result="effect1_foregroundBlur_991_1208"/>
</filter>
<filter id="filter2_f_991_1208" x="1139.1" y="90.335" width="51.8567" height="81.8563" filterUnits="userSpaceOnUse" color-interpolation-filters="sRGB">
<feFlood flood-opacity="0" result="BackgroundImageFix"/>
<feBlend mode="normal" in="SourceGraphic" in2="BackgroundImageFix" result="shape"/>
<feGaussianBlur stdDeviation="8" result="effect1_foregroundBlur_991_1208"/>
</filter>
<filter id="filter3_f_991_1208" x="1115.06" y="93.621" width="73.9204" height="50.2635" filterUnits="userSpaceOnUse" color-interpolation-filters="sRGB">
<feFlood flood-opacity="0" result="BackgroundImageFix"/>
<feBlend mode="normal" in="SourceGraphic" in2="BackgroundImageFix" result="shape"/>
<feGaussianBlur stdDeviation="8" result="effect1_foregroundBlur_991_1208"/>
</filter>
<filter id="filter4_f_991_1208" x="735.473" y="257.504" width="67.3235" height="69.104" filterUnits="userSpaceOnUse" color-interpolation-filters="sRGB">
<feFlood flood-opacity="0" result="BackgroundImageFix"/>
<feBlend mode="normal" in="SourceGraphic" in2="BackgroundImageFix" result="shape"/>
<feGaussianBlur stdDeviation="8" result="effect1_foregroundBlur_991_1208"/>
</filter>
<filter id="filter5_f_991_1208" x="725.056" y="260.962" width="50.1738" height="74.1661" filterUnits="userSpaceOnUse" color-interpolation-filters="sRGB">
<feFlood flood-opacity="0" result="BackgroundImageFix"/>
<feBlend mode="normal" in="SourceGraphic" in2="BackgroundImageFix" result="shape"/>
<feGaussianBlur stdDeviation="8" result="effect1_foregroundBlur_991_1208"/>
</filter>
<filter id="filter6_f_991_1208" x="330.645" y="195.237" width="83.1292" height="47.9585" filterUnits="userSpaceOnUse" color-interpolation-filters="sRGB">
<feFlood flood-opacity="0" result="BackgroundImageFix"/>
<feBlend mode="normal" in="SourceGraphic" in2="BackgroundImageFix" result="shape"/>
<feGaussianBlur stdDeviation="8" result="effect1_foregroundBlur_991_1208"/>
</filter>
<filter id="filter7_f_991_1208" x="334.219" y="196.639" width="52.845" height="71.1427" filterUnits="userSpaceOnUse" color-interpolation-filters="sRGB">
<feFlood flood-opacity="0" result="BackgroundImageFix"/>
<feBlend mode="normal" in="SourceGraphic" in2="BackgroundImageFix" result="shape"/>
<feGaussianBlur stdDeviation="8" result="effect1_foregroundBlur_991_1208"/>
</filter>
<filter id="filter8_f_991_1208" x="19.6453" y="27.2368" width="83.1292" height="47.9586" filterUnits="userSpaceOnUse" color-interpolation-filters="sRGB">
<feFlood flood-opacity="0" result="BackgroundImageFix"/>
<feBlend mode="normal" in="SourceGraphic" in2="BackgroundImageFix" result="shape"/>
<feGaussianBlur stdDeviation="8" result="effect1_foregroundBlur_991_1208"/>
</filter>
<filter id="filter9_f_991_1208" x="23.219" y="28.6389" width="52.845" height="71.1428" filterUnits="userSpaceOnUse" color-interpolation-filters="sRGB">
<feFlood flood-opacity="0" result="BackgroundImageFix"/>
<feBlend mode="normal" in="SourceGraphic" in2="BackgroundImageFix" result="shape"/>
<feGaussianBlur stdDeviation="8" result="effect1_foregroundBlur_991_1208"/>
</filter>
<linearGradient id="paint0_linear_991_1208" x1="400" y1="400" x2="-339.623" y2="611.321" gradientUnits="userSpaceOnUse">
<stop stop-color="#2E79F6"/>
<stop offset="1" stop-color="#66DEC3"/>
</linearGradient>
<linearGradient id="paint1_linear_991_1208" x1="881.035" y1="133.085" x2="1014.7" y2="195.266" gradientUnits="userSpaceOnUse">
<stop stop-color="#66DDC4"/>
<stop offset="1" stop-color="#2F7BF6"/>
</linearGradient>
<linearGradient id="paint2_linear_991_1208" x1="877.989" y1="236.475" x2="970.42" y2="245.491" gradientUnits="userSpaceOnUse">
<stop stop-color="#0B76FF" stop-opacity="0"/>
<stop offset="1" stop-color="#0B76FF"/>
</linearGradient>
<linearGradient id="paint3_linear_991_1208" x1="980.381" y1="254.527" x2="1053.13" y2="211.852" gradientUnits="userSpaceOnUse">
<stop stop-color="#50B7D7"/>
<stop offset="1" stop-color="#0B76FF" stop-opacity="0"/>
</linearGradient>
<linearGradient id="paint4_linear_991_1208" x1="928.844" y1="295.737" x2="991.838" y2="252.232" gradientUnits="userSpaceOnUse">
<stop stop-color="#0B76FF" stop-opacity="0"/>
<stop offset="1" stop-color="#0B76FF"/>
</linearGradient>
<linearGradient id="paint5_linear_991_1208" x1="1089.07" y1="173.497" x2="885.768" y2="105.729" gradientUnits="userSpaceOnUse">
<stop stop-color="#63D8C7"/>
<stop offset="1" stop-color="#307DF5"/>
</linearGradient>
<linearGradient id="paint6_linear_991_1208" x1="225" y1="76.4999" x2="217.183" y2="165.283" gradientUnits="userSpaceOnUse">
<stop stop-color="#00E2C2"/>
<stop offset="1" stop-color="#307DF5"/>
</linearGradient>
<linearGradient id="paint7_linear_991_1208" x1="184.971" y1="95.8812" x2="181.711" y2="146.882" gradientUnits="userSpaceOnUse">
<stop stop-color="#0B76FF" stop-opacity="0"/>
<stop offset="1" stop-color="#0B76FF"/>
</linearGradient>
<linearGradient id="paint8_linear_991_1208" x1="176.552" y1="151.413" x2="201.36" y2="190.638" gradientUnits="userSpaceOnUse">
<stop stop-color="#0B76FF" stop-opacity="0"/>
<stop offset="1" stop-color="#00E2C2"/>
</linearGradient>
<linearGradient id="paint9_linear_991_1208" x1="152.94" y1="123.827" x2="178.025" y2="157.672" gradientUnits="userSpaceOnUse">
<stop stop-color="#0B76FF" stop-opacity="0"/>
<stop offset="1" stop-color="#0B76FF"/>
</linearGradient>
<linearGradient id="paint10_linear_991_1208" x1="237.839" y1="150.094" x2="248.342" y2="104.745" gradientUnits="userSpaceOnUse">
<stop stop-color="#0B76FF" stop-opacity="0"/>
<stop offset="1" stop-color="#00E2C2"/>
</linearGradient>
<linearGradient id="paint11_linear_991_1208" x1="225.406" y1="184.211" x2="237.468" y2="143.815" gradientUnits="userSpaceOnUse">
<stop stop-color="#0B76FF" stop-opacity="0"/>
<stop offset="1" stop-color="#0B76FF"/>
</linearGradient>
<linearGradient id="paint12_linear_991_1208" x1="475.147" y1="246.497" x2="663.573" y2="264.66" gradientUnits="userSpaceOnUse">
<stop stop-color="#0B76FF" stop-opacity="0"/>
<stop offset="1" stop-color="#0B76FF"/>
</linearGradient>
<linearGradient id="paint13_linear_991_1208" x1="475.147" y1="246.497" x2="581.149" y2="293.692" gradientUnits="userSpaceOnUse">
<stop stop-color="#39FFF2"/>
<stop offset="1" stop-color="#0B76FF" stop-opacity="0"/>
</linearGradient>
<linearGradient id="paint14_linear_991_1208" x1="548.914" y1="265.062" x2="559.652" y2="273.104" gradientUnits="userSpaceOnUse">
<stop stop-color="#0B76FF" stop-opacity="0.165"/>
<stop offset="1" stop-color="#0B76FF"/>
</linearGradient>
<linearGradient id="paint15_linear_991_1208" x1="521.043" y1="270.874" x2="579.256" y2="296.792" gradientUnits="userSpaceOnUse">
<stop stop-color="#39FFF2"/>
<stop offset="1" stop-color="#0B76FF" stop-opacity="0"/>
</linearGradient>
<linearGradient id="paint16_linear_991_1208" x1="505.069" y1="221.233" x2="583.828" y2="267.329" gradientUnits="userSpaceOnUse">
<stop stop-color="#0B76FF" stop-opacity="0"/>
<stop offset="1" stop-color="#0B76FF"/>
</linearGradient>
<linearGradient id="paint17_linear_991_1208" x1="490.232" y1="216.68" x2="593.575" y2="262.691" gradientUnits="userSpaceOnUse">
<stop stop-color="#39FFF2"/>
<stop offset="1" stop-color="#0B76FF" stop-opacity="0"/>
</linearGradient>
<linearGradient id="paint18_linear_991_1208" x1="1250.72" y1="64.0241" x2="1396.11" y2="75.2398" gradientUnits="userSpaceOnUse">
<stop stop-color="#0B76FF" stop-opacity="0"/>
<stop offset="1" stop-color="#0B76FF"/>
</linearGradient>
<linearGradient id="paint19_linear_991_1208" x1="1343" y1="52.5" x2="1263" y2="81" gradientUnits="userSpaceOnUse">
<stop stop-color="#00E2C2"/>
<stop offset="1" stop-color="#0B4FFF" stop-opacity="0"/>
</linearGradient>
<linearGradient id="paint20_linear_991_1208" x1="1307.8" y1="76.8789" x2="1316.13" y2="82.8973" gradientUnits="userSpaceOnUse">
<stop stop-color="#FF55FF" stop-opacity="0.165"/>
<stop offset="1" stop-color="#0B76FF"/>
</linearGradient>
<linearGradient id="paint21_linear_991_1208" x1="1286.51" y1="81.7088" x2="1331.47" y2="100.797" gradientUnits="userSpaceOnUse">
<stop stop-color="#00E2C2"/>
<stop offset="1" stop-color="#0B76FF" stop-opacity="0.62"/>
</linearGradient>
<linearGradient id="paint22_linear_991_1208" x1="1273.58" y1="44.0038" x2="1334.96" y2="78.4342" gradientUnits="userSpaceOnUse">
<stop stop-color="#00E2C2" stop-opacity="0"/>
<stop offset="1" stop-color="#00E2C2"/>
</linearGradient>
<linearGradient id="paint23_linear_991_1208" x1="1137.57" y1="141.449" x2="1194.01" y2="94.9016" gradientUnits="userSpaceOnUse">
<stop stop-color="#0B76FF" stop-opacity="0"/>
<stop offset="1" stop-color="#0B76FF"/>
</linearGradient>
<linearGradient id="paint24_linear_991_1208" x1="1166.91" y1="105.167" x2="1147.91" y2="143.309" gradientUnits="userSpaceOnUse">
<stop stop-color="#00E2C2"/>
<stop offset="1" stop-color="#0B4FFF" stop-opacity="0"/>
</linearGradient>
<linearGradient id="paint25_linear_991_1208" x1="1162.67" y1="126.229" x2="1167.78" y2="125.503" gradientUnits="userSpaceOnUse">
<stop stop-color="#FF55FF" stop-opacity="0.165"/>
<stop offset="1" stop-color="#0B76FF"/>
</linearGradient>
<linearGradient id="paint26_linear_991_1208" x1="1156.65" y1="135.385" x2="1179.55" y2="126.633" gradientUnits="userSpaceOnUse">
<stop stop-color="#00E2C2"/>
<stop offset="1" stop-color="#0B76FF" stop-opacity="0.62"/>
</linearGradient>
<linearGradient id="paint27_linear_991_1208" x1="1138.86" y1="126.257" x2="1173.03" y2="117.339" gradientUnits="userSpaceOnUse">
<stop stop-color="#00E2C2" stop-opacity="0"/>
<stop offset="1" stop-color="#00E2C2"/>
</linearGradient>
<linearGradient id="paint28_linear_991_1208" x1="760.457" y1="324.009" x2="752.305" y2="251.299" gradientUnits="userSpaceOnUse">
<stop stop-color="#0B76FF" stop-opacity="0"/>
<stop offset="1" stop-color="#0B76FF"/>
</linearGradient>
<linearGradient id="paint29_linear_991_1208" x1="746.095" y1="279.612" x2="767.667" y2="316.357" gradientUnits="userSpaceOnUse">
<stop stop-color="#00E2C2"/>
<stop offset="1" stop-color="#0B4FFF" stop-opacity="0"/>
</linearGradient>
<linearGradient id="paint30_linear_991_1208" x1="761.421" y1="294.667" x2="763.603" y2="289.994" gradientUnits="userSpaceOnUse">
<stop stop-color="#FF55FF" stop-opacity="0.165"/>
<stop offset="1" stop-color="#0B76FF"/>
</linearGradient>
<linearGradient id="paint31_linear_991_1208" x1="765.805" y1="304.706" x2="770.981" y2="280.748" gradientUnits="userSpaceOnUse">
<stop stop-color="#00E2C2"/>
<stop offset="1" stop-color="#0B76FF" stop-opacity="0.62"/>
</linearGradient>
<linearGradient id="paint32_linear_991_1208" x1="748.439" y1="314.625" x2="759.633" y2="281.136" gradientUnits="userSpaceOnUse">
<stop stop-color="#00E2C2" stop-opacity="0"/>
<stop offset="1" stop-color="#00E2C2"/>
</linearGradient>
<linearGradient id="paint33_linear_991_1208" x1="387.563" y1="242.175" x2="332.162" y2="194.384" gradientUnits="userSpaceOnUse">
<stop stop-color="#0B76FF" stop-opacity="0"/>
<stop offset="1" stop-color="#0B76FF"/>
</linearGradient>
<linearGradient id="paint34_linear_991_1208" x1="346.852" y1="219.373" x2="387.651" y2="231.662" gradientUnits="userSpaceOnUse">
<stop stop-color="#00E2C2"/>
<stop offset="1" stop-color="#0B4FFF" stop-opacity="0"/>
</linearGradient>
<linearGradient id="paint35_linear_991_1208" x1="368.327" y1="219.998" x2="366.751" y2="215.087" gradientUnits="userSpaceOnUse">
<stop stop-color="#FF55FF" stop-opacity="0.165"/>
<stop offset="1" stop-color="#0B76FF"/>
</linearGradient>
<linearGradient id="paint36_linear_991_1208" x1="378.366" y1="224.382" x2="365.878" y2="203.29" gradientUnits="userSpaceOnUse">
<stop stop-color="#00E2C2"/>
<stop offset="1" stop-color="#0B76FF" stop-opacity="0.62"/>
</linearGradient>
<linearGradient id="paint37_linear_991_1208" x1="372.37" y1="243.46" x2="357.818" y2="211.289" gradientUnits="userSpaceOnUse">
<stop stop-color="#00E2C2" stop-opacity="0"/>
<stop offset="1" stop-color="#00E2C2"/>
</linearGradient>
<linearGradient id="paint38_linear_991_1208" x1="76.5629" y1="74.1749" x2="21.1622" y2="26.384" gradientUnits="userSpaceOnUse">
<stop stop-color="#0B76FF" stop-opacity="0"/>
<stop offset="1" stop-color="#0B76FF"/>
</linearGradient>
<linearGradient id="paint39_linear_991_1208" x1="35.852" y1="51.3727" x2="76.6512" y2="63.6618" gradientUnits="userSpaceOnUse">
<stop stop-color="#00E2C2"/>
<stop offset="1" stop-color="#0B4FFF" stop-opacity="0"/>
</linearGradient>
<linearGradient id="paint40_linear_991_1208" x1="57.3271" y1="51.9978" x2="55.7508" y2="47.0866" gradientUnits="userSpaceOnUse">
<stop stop-color="#FF55FF" stop-opacity="0.165"/>
<stop offset="1" stop-color="#0B76FF"/>
</linearGradient>
<linearGradient id="paint41_linear_991_1208" x1="67.3658" y1="56.3816" x2="54.8783" y2="35.2904" gradientUnits="userSpaceOnUse">
<stop stop-color="#00E2C2"/>
<stop offset="1" stop-color="#00E2C2" stop-opacity="0"/>
</linearGradient>
<linearGradient id="paint42_linear_991_1208" x1="61.3697" y1="75.4603" x2="46.8182" y2="43.2888" gradientUnits="userSpaceOnUse">
<stop stop-color="#00E2C2" stop-opacity="0"/>
<stop offset="1" stop-color="#00E2C2"/>
</linearGradient>
<linearGradient id="paint43_linear_991_1208" x1="97.2438" y1="159.256" x2="69.5041" y2="128.277" gradientUnits="userSpaceOnUse">
<stop stop-color="#408EFC"/>
<stop offset="1" stop-color="#0ECFCC"/>
</linearGradient>
<linearGradient id="paint44_linear_991_1208" x1="458.961" y1="156.472" x2="413.618" y2="105.834" gradientUnits="userSpaceOnUse">
<stop stop-color="#408EFC"/>
<stop offset="1" stop-color="#0ECFCC"/>
</linearGradient>
<linearGradient id="paint45_linear_991_1208" x1="648.525" y1="304.692" x2="676.912" y2="268.299" gradientUnits="userSpaceOnUse">
<stop stop-color="#2F7AF6"/>
<stop offset="1" stop-color="#0ECFCC"/>
</linearGradient>
<linearGradient id="paint46_linear_991_1208" x1="1039.08" y1="74.2922" x2="1078.83" y2="97.8837" gradientUnits="userSpaceOnUse">
<stop stop-color="#2F7AF6"/>
<stop offset="1" stop-color="#0ECFCC"/>
</linearGradient>
<clipPath id="clip0_991_1208">
<rect width="1400" height="400" fill="white"/>
</clipPath>
</defs>
</svg>
