<svg width="203" height="132" viewBox="0 0 203 132" xmlns="http://www.w3.org/2000/svg">
    <defs>
        <radialGradient cx="50%" cy="50%" fx="50%" fy="50%" r="50%" gradientTransform="matrix(0 1 -.99086 0 .995 0)" id="b">
            <stop stop-color="#008471" offset="0%"/>
            <stop stop-color="#103051" offset="100%"/>
        </radialGradient>
        <radialGradient cx="50%" cy="50%" fx="50%" fy="50%" r="50%" gradientTransform="matrix(0 1 -.99086 0 .995 0)" id="c">
            <stop stop-color="#008471" offset="0%"/>
            <stop stop-color="#103051" offset="100%"/>
        </radialGradient>
        <linearGradient x1="50%" y1="0%" x2="50%" y2="100%" id="a">
            <stop stop-color="#A17DFF" offset="0%"/>
            <stop stop-color="#6F7FFF" offset="100%"/>
        </linearGradient>
    </defs>
    <g fill="none" fill-rule="evenodd">
        <g transform="translate(59 37)" fill-rule="nonzero">
            <path d="M80.198 18.667c-.161 0-.325-.03-.484-.09l-4.68-1.787a1.329 1.329 0 0 1-.059-.024L48.23 5.123l-3.917-1.408a1.356 1.356 0 0 1 .917-2.553l3.96 1.423c.027.01.055.021.082.033L76.03 14.266l4.652 1.776a1.356 1.356 0 0 1-.484 2.625z" fill="#EFEDEF"/>
            <path d="M9.992 18.892a1.357 1.357 0 0 1-.584-2.582l4.231-2.012.042-.02 26.76-11.65 3.32-1.607a1.357 1.357 0 0 1 1.183 2.442L41.6 5.083a1.755 1.755 0 0 1-.05.022L14.784 16.757l-4.21 2.003a1.35 1.35 0 0 1-.582.132z" fill="#EFEDEF"/>
            <path d="M82.122 17.014c0-.824-.667-1.491-1.49-1.491H9.287c-.824 0-1.491.667-1.491 1.49v48.241c0 1.034.838 1.873 1.872 1.873H80.25a1.872 1.872 0 0 0 1.872-1.873v-48.24z" fill="#0B78FF"/>
            <path d="M13.223 22.156v38.336c0 .667.54 1.208 1.208 1.208h1.97l25.775-7.987L73.519 61.7h1.969c.667 0 1.208-.541 1.208-1.208V22.156c0-.667-.54-1.208-1.208-1.208H14.43c-.667 0-1.208.54-1.208 1.208z" fill="#042548"/>
            <path d="M53.147 40.784 73.519 61.7H16.4l20.371-20.916c4.487-4.606 11.888-4.606 16.375 0z" fill="#39FDF2"/>
            <path d="M16.842 51c-1.316 0-2.408.105-3.62.262V61.7h19.62c.105-.471.158-.59.158-1.062C33 55.295 25.79 51 16.842 51z" fill="#00BCA1"/>
            <path d="M66.787 46C52.49 46 40.857 52.847 40.7 61.7h36V47.227C73.622 46.48 70.283 46 66.787 46z" fill="#00FF67"/>
            <path d="M65.45 82.51c-6.87 0-13.315-2.687-18.151-7.565l-.51-.515-2.866-2.793a1.356 1.356 0 1 1 1.893-1.942l2.874 2.8.017.017.518.523a22.686 22.686 0 0 0 16.225 6.762c6.14 0 11.902-2.401 16.224-6.762l.519-.523 3.73-3.845a1.356 1.356 0 1 1 1.946 1.888l-3.74 3.856-.528.534c-4.836 4.878-11.282 7.565-18.151 7.565z" fill="#E82954"/>
            <path d="M24.47 82.51c-6.87 0-13.316-2.687-18.151-7.565l-.52-.523-3.214-3.218a1.356 1.356 0 1 1 1.918-1.917l3.742 3.748a22.686 22.686 0 0 0 16.224 6.762c6.14 0 11.902-2.401 16.225-6.762l.519-.523a.699.699 0 0 1 .02-.02l3.023-2.924a1.356 1.356 0 1 1 1.885 1.95l-3.012 2.914-.509.513c-4.835 4.878-11.282 7.565-18.15 7.565z" fill="#E82954"/>
            <path d="M46.589 90h-3.44a.974.974 0 0 1-.973-.974V49.222h5.387v39.804a.974.974 0 0 1-.974.974z" fill="#FA7003"/>
            <circle fill="#FFB900" cx="65.726" cy="32.897" r="3.86"/>
            <path d="M27.647 24.465a4.944 4.944 0 0 0-5.136 3.34c-.223.66-.86 1.092-1.557 1.092h-1.511a2.716 2.716 0 1 0 0 5.432h7.751a4.943 4.943 0 0 0 4.91-5.505c-.254-2.31-2.142-4.153-4.457-4.36z" fill="#FFF"/>
            <path d="M27.216 24.465a4.944 4.944 0 0 1 5.136 3.34c.223.66.86 1.092 1.556 1.092h1.512a2.716 2.716 0 1 1 0 5.432h-7.751a4.943 4.943 0 0 1-4.911-5.505c.255-2.31 2.143-4.153 4.458-4.36z" fill="#FFF"/>
            <circle fill="#FA7003" cx="44.869" cy="3.862" r="3.862"/>
            <path d="M46.432 53.713h-2.944a2.688 2.688 0 0 1-2.688-2.688v-.683a2.688 2.688 0 0 1 2.688-2.688h2.944a2.688 2.688 0 0 1 2.688 2.688v.683a2.688 2.688 0 0 1-2.688 2.688z" fill="#E82954"/>
            <g fill="#FA7003">
                <path d="M6.763 89.126V51.362H1.377v37.764c0 .482.391.874.874.874h3.638a.874.874 0 0 0 .874-.874zM88.543 88.975v-38.88h-5.387v38.88c0 .566.46 1.025 1.025 1.025h3.337c.566 0 1.025-.459 1.025-1.025z"/>
            </g>
            <g fill="#E82954">
                <path d="M5.632 53.713H2.688A2.688 2.688 0 0 1 0 51.025v-.683a2.688 2.688 0 0 1 2.688-2.688h2.944a2.688 2.688 0 0 1 2.688 2.688v.683a2.688 2.688 0 0 1-2.688 2.688zM84.287 53.713h2.944a2.688 2.688 0 0 0 2.688-2.688v-.683a2.688 2.688 0 0 0-2.688-2.688h-2.944a2.688 2.688 0 0 0-2.688 2.688v.683a2.688 2.688 0 0 0 2.688 2.688z"/>
            </g>
        </g>
        <path d="m64.115 67.365 1.853 3.388a.706.706 0 0 0 .28.28l3.387 1.852a.7.7 0 0 1 0 1.23l-3.388 1.853a.706.706 0 0 0-.279.28l-1.853 3.387a.7.7 0 0 1-1.23 0l-1.853-3.388a.706.706 0 0 0-.279-.279l-3.388-1.853a.7.7 0 0 1 0-1.23l3.388-1.853a.7.7 0 0 0 .28-.279l1.852-3.388a.7.7 0 0 1 1.23 0z" fill="#FFF"/>
        <path d="M80.5 4c-.744 0-1.346.603-1.346 1.347v.909a1.347 1.347 0 1 0 2.692 0v-.908C81.846 4.603 81.244 4 80.5 4zm0 13.398c-.744 0-1.346.603-1.346 1.347v.907a1.347 1.347 0 1 0 2.692 0v-.907c0-.744-.602-1.347-1.346-1.347zm4.417-7.967c.345 0 .69-.131.953-.395l.64-.64a1.347 1.347 0 0 0-1.902-1.908l-.642.642a1.347 1.347 0 0 0 .952 2.301h-.001zm-9.786 6.532-.64.64a1.35 1.35 0 0 0 .95 2.301c.345 0 .69-.131.952-.394l.642-.64a1.348 1.348 0 0 0 0-1.906 1.344 1.344 0 0 0-1.904 0v-.001zm12.523-4.81h-.908a1.347 1.347 0 0 0 0 2.694h.908a1.346 1.346 0 0 0 0-2.694zM75.6 12.5c0-.744-.603-1.347-1.346-1.347h-.908a1.346 1.346 0 0 0 0 2.694h.908c.743 0 1.346-.603 1.346-1.347zm10.27 3.463a1.347 1.347 0 1 0-1.904 1.907l.642.64a1.343 1.343 0 0 0 1.904-.001 1.35 1.35 0 0 0-.002-1.906l-.641-.64zM75.13 9.036a1.34 1.34 0 0 0 1.905 0 1.348 1.348 0 0 0-.001-1.906l-.642-.642a1.346 1.346 0 1 0-1.903 1.908l.641.64zM122.5 21a.713.713 0 0 0-.713.713v.481a.713.713 0 1 0 1.426 0v-.48A.713.713 0 0 0 122.5 21zm0 7.093a.713.713 0 0 0-.713.713v.48a.713.713 0 1 0 1.426 0v-.48a.713.713 0 0 0-.713-.713zm2.338-4.218a.71.71 0 0 0 .505-.209l.339-.339a.713.713 0 0 0-1.007-1.01l-.34.34a.713.713 0 0 0 .504 1.218zm-5.18 3.458-.34.34a.714.714 0 0 0 1.008 1.009l.34-.34a.714.714 0 0 0-1.008-1.008zm6.63-2.546h-.481a.713.713 0 0 0 0 1.426h.48a.713.713 0 0 0 0-1.426zm-6.382.713a.713.713 0 0 0-.713-.713h-.48a.713.713 0 0 0 0 1.426h.48c.394 0 .713-.319.713-.713zm5.437 1.833a.713.713 0 1 0-1.008 1.01l.34.339a.71.71 0 0 0 1.008 0 .714.714 0 0 0-.001-1.01l-.34-.339zm-5.685-3.667a.71.71 0 0 0 1.008 0 .714.714 0 0 0 0-1.009l-.34-.34a.713.713 0 1 0-1.008 1.01l.34.34z" fill="#FFB657" fill-rule="nonzero"/>
        <path d="m171.378 59.224 1.14 2.085c.04.073.1.132.172.172l2.085 1.14c.3.164.3.594 0 .757l-2.085 1.14a.43.43 0 0 0-.171.172l-1.14 2.085c-.164.3-.594.3-.758 0l-1.14-2.085a.428.428 0 0 0-.172-.171l-2.085-1.14a.431.431 0 0 1 0-.758l2.085-1.14a.43.43 0 0 0 .172-.171l1.14-2.086c.164-.3.594-.3.757 0zM8.378 42.225l1.14 2.084c.04.073.1.132.172.172l2.085 1.14c.3.164.3.594 0 .757l-2.085 1.14a.435.435 0 0 0-.172.172l-1.14 2.085c-.163.3-.593.3-.757 0l-1.14-2.085a.435.435 0 0 0-.172-.172l-2.084-1.14a.431.431 0 0 1 0-.757l2.084-1.14a.43.43 0 0 0 .172-.172l1.14-2.084c.164-.3.594-.3.757 0z" fill="#FFF" fill-rule="nonzero"/>
        <g transform="translate(171 82)">
            <circle stroke="url(#a)" stroke-width="3" fill="#000A16" cx="13" cy="13" r="14.5"/>
            <g fill-rule="nonzero">
                <path d="m13.01 4.042 7.64 13.164H5.369L13.01 4.042zm0 4.348-3.872 6.651h7.743l-3.871-6.65z" fill="#0B76FF"/>
                <path d="m7.642 4.368 7.64 13.164H0L7.642 4.368zm0 4.348-3.873 6.651h7.743l-3.87-6.65z" fill="#00E3C2" style="mix-blend-mode:lighten" transform="rotate(-180 10.325 12.97)"/>
                <g>
                    <path d="m8.618 5.22 13.198 7.58-13.234 7.641.036-15.221zm2.174 3.766-.028 7.696 6.706-3.872-6.678-3.824z" fill="#25C0FF"/>
                    <path d="m7.642 4.368 7.64 13.164H0L7.642 4.368zm0 4.348-3.873 6.651h7.743l-3.87-6.65z" fill="#FF51FF" style="mix-blend-mode:lighten" transform="rotate(150 10.363 13.69)"/>
                </g>
            </g>
        </g>
        <g transform="translate(36 39)">
            <circle stroke="url(#a)" stroke-width="2" fill="#000A16" cx="8.5" cy="8.5" r="9.5"/>
            <g fill-rule="nonzero">
                <path d="m8.507 3.061 4.97 8.566H3.535l4.973-8.566zm0 2.83-2.52 4.328h5.038L8.506 5.89z" fill="#0B76FF"/>
                <path d="m4.973 2.842 4.97 8.566H0l4.973-8.566zm0 2.83L2.452 10H7.49L4.972 5.672z" fill="#00E3C2" style="mix-blend-mode:lighten" transform="rotate(-180 6.739 8.656)"/>
                <g>
                    <path d="m5.649 3.828 8.588 4.933-8.612 4.972.024-9.905zm1.414 2.45-.018 5.008 4.363-2.519-4.345-2.489z" fill="#25C0FF"/>
                    <path d="m4.973 2.842 4.97 8.566H0l4.973-8.566zm0 2.83L2.452 10H7.49L4.972 5.672z" fill="#FF51FF" style="mix-blend-mode:lighten" transform="rotate(150 6.706 9.13)"/>
                </g>
            </g>
        </g>
        <g transform="translate(8.013 80.012)" fill-rule="nonzero">
            <ellipse stroke="#00F6D2" stroke-width="3" fill="url(#b)" cx="14.598" cy="14.465" rx="14.598" ry="14.465"/>
            <g fill="#FFF">
                <path d="m6.237 20.526 8.399-14.413v4.532l-4.285 7.474h8.571l-4.283-7.474V6.113l8.397 14.413H6.237z"/>
                <path d="M14.637 12.5v4.74l-2.658.007zM14.637 12.5v4.74l2.656.007z"/>
                <path d="m14.644 12.493-2.63 4.747 5.305.02z"/>
                <path d="m14.81 15.38-8.958-3.858v4.435l8.959-.18z"/>
                <path d="m14.81 15.38 8.96-3.858v4.435l-8.96-.18z"/>
            </g>
        </g>
        <g transform="translate(148.013 35.012)" fill-rule="nonzero">
            <ellipse stroke="#00F6D2" stroke-width="1.5" fill="url(#c)" cx="7.065" cy="7" rx="7.065" ry="7"/>
            <g fill="#FFF">
                <path d="m3.018 9.933 4.065-6.975v2.193L5.009 8.768h4.148L7.084 5.151V2.958l4.064 6.975h-8.13z"/>
                <path d="M7.083 6.049v2.294l-1.286.003zM7.083 6.049v2.294l1.286.003z"/>
                <path d="M7.086 6.046 5.814 8.343l2.567.01z"/>
                <path d="M7.167 7.443 2.832 5.576v2.146l4.335-.087zM7.167 7.443l4.336-1.867v2.146l-4.336-.087z"/>
            </g>
        </g>
    </g>
</svg>
