<svg width="16" height="16" viewBox="0 0 16 16" fill="none" xmlns="http://www.w3.org/2000/svg">
<path d="M7.99334 1.33337C4.31334 1.33337 1.33334 4.32004 1.33334 8.00004C1.33334 11.68 4.31334 14.6667 7.99334 14.6667C11.68 14.6667 14.6667 11.68 14.6667 8.00004C14.6667 4.32004 11.68 1.33337 7.99334 1.33337ZM12.6133 5.33337H10.6467C10.4333 4.50004 10.1267 3.70004 9.72668 2.96004C10.9533 3.38004 11.9733 4.23337 12.6133 5.33337ZM8.00001 2.69337C8.55334 3.49337 8.98668 4.38004 9.27334 5.33337H6.72668C7.01334 4.38004 7.44668 3.49337 8.00001 2.69337ZM2.84001 9.33337C2.73334 8.90671 2.66668 8.46004 2.66668 8.00004C2.66668 7.54004 2.73334 7.09337 2.84001 6.66671H5.09334C5.04001 7.10671 5.00001 7.54671 5.00001 8.00004C5.00001 8.45337 5.04001 8.89337 5.09334 9.33337H2.84001ZM3.38668 10.6667H5.35334C5.56668 11.5 5.87334 12.3 6.27334 13.04C5.04668 12.62 4.02668 11.7734 3.38668 10.6667ZM5.35334 5.33337H3.38668C4.02668 4.22671 5.04668 3.38004 6.27334 2.96004C5.87334 3.70004 5.56668 4.50004 5.35334 5.33337ZM8.00001 13.3067C7.44668 12.5067 7.01334 11.62 6.72668 10.6667H9.27334C8.98668 11.62 8.55334 12.5067 8.00001 13.3067ZM9.56001 9.33337H6.44001C6.38001 8.89337 6.33334 8.45337 6.33334 8.00004C6.33334 7.54671 6.38001 7.10004 6.44001 6.66671H9.56001C9.62001 7.10004 9.66668 7.54671 9.66668 8.00004C9.66668 8.45337 9.62001 8.89337 9.56001 9.33337ZM9.72668 13.04C10.1267 12.3 10.4333 11.5 10.6467 10.6667H12.6133C11.9733 11.7667 10.9533 12.62 9.72668 13.04ZM10.9067 9.33337C10.96 8.89337 11 8.45337 11 8.00004C11 7.54671 10.96 7.10671 10.9067 6.66671H13.16C13.2667 7.09337 13.3333 7.54004 13.3333 8.00004C13.3333 8.46004 13.2667 8.90671 13.16 9.33337H10.9067Z" fill="#00F6D2"/>
</svg>
