<svg width="14" height="14" viewBox="0 0 14 14" fill="none" xmlns="http://www.w3.org/2000/svg">
<path d="M6.99334 0.333313C3.31334 0.333313 0.333344 3.31998 0.333344 6.99998C0.333344 10.68 3.31334 13.6666 6.99334 13.6666C10.68 13.6666 13.6667 10.68 13.6667 6.99998C13.6667 3.31998 10.68 0.333313 6.99334 0.333313ZM11.6133 4.33331H9.64668C9.43334 3.49998 9.12668 2.69998 8.72668 1.95998C9.95334 2.37998 10.9733 3.23331 11.6133 4.33331ZM7.00001 1.69331C7.55334 2.49331 7.98668 3.37998 8.27334 4.33331H5.72668C6.01334 3.37998 6.44668 2.49331 7.00001 1.69331ZM1.84001 8.33331C1.73334 7.90665 1.66668 7.45998 1.66668 6.99998C1.66668 6.53998 1.73334 6.09331 1.84001 5.66665H4.09334C4.04001 6.10665 4.00001 6.54665 4.00001 6.99998C4.00001 7.45331 4.04001 7.89331 4.09334 8.33331H1.84001ZM2.38668 9.66665H4.35334C4.56668 10.5 4.87334 11.3 5.27334 12.04C4.04668 11.62 3.02668 10.7733 2.38668 9.66665ZM4.35334 4.33331H2.38668C3.02668 3.22665 4.04668 2.37998 5.27334 1.95998C4.87334 2.69998 4.56668 3.49998 4.35334 4.33331ZM7.00001 12.3066C6.44668 11.5066 6.01334 10.62 5.72668 9.66665H8.27334C7.98668 10.62 7.55334 11.5066 7.00001 12.3066ZM8.56001 8.33331H5.44001C5.38001 7.89331 5.33334 7.45331 5.33334 6.99998C5.33334 6.54665 5.38001 6.09998 5.44001 5.66665H8.56001C8.62001 6.09998 8.66668 6.54665 8.66668 6.99998C8.66668 7.45331 8.62001 7.89331 8.56001 8.33331ZM8.72668 12.04C9.12668 11.3 9.43334 10.5 9.64668 9.66665H11.6133C10.9733 10.7666 9.95334 11.62 8.72668 12.04ZM9.90668 8.33331C9.96001 7.89331 10 7.45331 10 6.99998C10 6.54665 9.96001 6.10665 9.90668 5.66665H12.16C12.2667 6.09331 12.3333 6.53998 12.3333 6.99998C12.3333 7.45998 12.2667 7.90665 12.16 8.33331H9.90668Z" fill="white" fill-opacity="0.5"/>
</svg>
