<svg width="24" height="24" viewBox="0 0 24 24" fill="none" xmlns="http://www.w3.org/2000/svg">
<path fill-rule="evenodd" clip-rule="evenodd" d="M12.4707 3.16436C12.1949 2.94521 11.8046 2.94521 11.5288 3.16436L2.86214 10.0505C2.5827 10.2726 2.47959 10.6494 2.60784 10.9829C2.7361 11.3164 3.06621 11.5287 3.42314 11.5287H4.85742V19.7143C4.85742 20.4244 5.43302 21 6.14314 21H9.42885C9.7833 21 10.0717 20.7132 10.0717 20.3572V15.4286C10.0717 14.9553 10.4555 14.5715 10.9288 14.5715H13.0717C13.545 14.5715 13.9288 14.9553 13.9288 15.4286V20.3572C13.9288 20.7132 14.2172 21 14.5717 21H17.8574C18.5675 21 19.1431 20.4244 19.1431 19.7143V11.5287H20.5774C20.9343 11.5287 21.2644 11.3164 21.3927 10.9829C21.5209 10.6494 21.4178 10.2726 21.1384 10.0505L12.4707 3.16436Z" fill="#00F6D2"/>
</svg>
