<svg width="16" height="16" viewBox="0 0 16 16" xmlns="http://www.w3.org/2000/svg">
    <g fill="#FFF" stroke="#FFF" fill-rule="evenodd">
        <path d="M15.898 7.507c-.142-.195-3.549-4.78-7.898-4.78-4.35 0-7.756 4.585-7.898 4.78a.527.527 0 0 0 0 .622c.142.195 3.548 4.78 7.898 4.78s7.756-4.585 7.898-4.78a.526.526 0 0 0 0-.622zM8 11.82c-3.175 0-5.924-3.016-6.737-4.001C2.074 6.83 4.818 3.819 8 3.819c3.174 0 5.923 3.014 6.737 4-.812.987-3.556 4-6.737 4z" stroke-width=".5"/>
        <path d="M7.981 5.4A2.494 2.494 0 0 0 5.5 7.9c0 1.379 1.113 2.5 2.482 2.5a2.493 2.493 0 0 0 2.48-2.5c0-1.378-1.112-2.5-2.48-2.5zm0 4.167A1.662 1.662 0 0 1 6.327 7.9c0-.919.742-1.666 1.655-1.666.912 0 1.653.747 1.653 1.666 0 .919-.741 1.667-1.653 1.667z" stroke-width=".5"/>
        <path d="M14.566 2.207a.727.727 0 0 1-.09 1.025L2.22 13.517a.727.727 0 0 1-.934-1.115L13.54 2.117a.727.727 0 0 1 1.025.09z" stroke-width=".3"/>
    </g>
</svg>
