<svg width="14" height="14" viewBox="0 0 14 14" fill="none" xmlns="http://www.w3.org/2000/svg">
<path d="M12.9647 4.53761C12.9579 4.0327 12.8634 3.5328 12.6853 3.06028C12.5309 2.66172 12.295 2.29975 11.9928 1.9975C11.6905 1.69526 11.3286 1.45938 10.93 1.30495C10.4635 1.12985 9.97077 1.03518 9.47265 1.02495C8.83132 0.996281 8.62799 0.988281 6.99999 0.988281C5.37199 0.988281 5.16332 0.988281 4.52665 1.02495C4.02876 1.03525 3.53622 1.12993 3.06999 1.30495C2.67136 1.45927 2.30933 1.69511 2.00707 1.99737C1.70482 2.29963 1.46898 2.66165 1.31465 3.06028C1.13921 3.52637 1.04473 4.01902 1.03532 4.51695C1.00665 5.15895 0.997986 5.36228 0.997986 6.99028C0.997986 8.61828 0.997986 8.82628 1.03532 9.46361C1.04532 9.96228 1.13932 10.4543 1.31465 10.9216C1.46924 11.3201 1.70525 11.682 2.00761 11.9841C2.30997 12.2863 2.67203 12.522 3.07065 12.6763C3.53561 12.8584 4.02823 12.9599 4.52732 12.9763C5.16932 13.0049 5.37265 13.0136 7.00065 13.0136C8.62865 13.0136 8.83732 13.0136 9.47399 12.9763C9.97209 12.9665 10.4649 12.872 10.9313 12.6969C11.3298 12.5423 11.6917 12.3064 11.9939 12.0042C12.2961 11.702 12.532 11.3401 12.6867 10.9416C12.862 10.4749 12.956 9.98295 12.966 9.48361C12.9947 8.84228 13.0033 8.63895 13.0033 7.01028C13.002 5.38228 13.002 5.17561 12.9647 4.53761ZM6.99599 10.0689C5.29332 10.0689 3.91399 8.68961 3.91399 6.98695C3.91399 5.28428 5.29332 3.90495 6.99599 3.90495C7.81338 3.90495 8.5973 4.22966 9.17529 4.80764C9.75328 5.38563 10.078 6.16955 10.078 6.98695C10.078 7.80434 9.75328 8.58826 9.17529 9.16625C8.5973 9.74424 7.81338 10.0689 6.99599 10.0689ZM10.2007 4.50961C10.1063 4.5097 10.0128 4.49117 9.92553 4.45509C9.83829 4.419 9.75904 4.36607 9.69228 4.29932C9.62553 4.23257 9.5726 4.15331 9.53651 4.06607C9.50043 3.97884 9.4819 3.88535 9.48199 3.79095C9.48199 3.69661 9.50057 3.60321 9.53667 3.51605C9.57277 3.4289 9.62568 3.34971 9.69238 3.28301C9.75909 3.21631 9.83827 3.16339 9.92543 3.12729C10.0126 3.09119 10.106 3.07261 10.2003 3.07261C10.2947 3.07261 10.3881 3.09119 10.4752 3.12729C10.5624 3.16339 10.6416 3.21631 10.7083 3.28301C10.775 3.34971 10.8279 3.4289 10.864 3.51605C10.9001 3.60321 10.9187 3.69661 10.9187 3.79095C10.9187 4.18828 10.5973 4.50961 10.2007 4.50961Z" fill="white" fill-opacity="0.5"/>
</svg>
