<svg width="204" height="236" viewBox="0 0 204 236" fill="none" xmlns="http://www.w3.org/2000/svg">
<path opacity="0.4" d="M45.5 186C70.629 186 91 165.629 91 140.5C91 115.371 70.629 95 45.5 95C20.371 95 0 115.371 0 140.5C0 165.629 20.371 186 45.5 186Z" fill="#0976FF"/>
<path opacity="0.4" d="M172.5 104C188.24 104 201 91.2401 201 75.5C201 59.7599 188.24 47 172.5 47C156.76 47 144 59.7599 144 75.5C144 91.2401 156.76 104 172.5 104Z" fill="#9F7DFF"/>
<path opacity="0.4" d="M74.5 65C83.6127 65 91 57.6127 91 48.5C91 39.3873 83.6127 32 74.5 32C65.3873 32 58 39.3873 58 48.5C58 57.6127 65.3873 65 74.5 65Z" fill="#00F6D2"/>
<path d="M108.263 175.842C145.082 175.842 174.93 145.994 174.93 109.175C174.93 72.3565 145.082 42.5088 108.263 42.5088C71.4439 42.5088 41.5962 72.3565 41.5962 109.175C41.5962 145.994 71.4439 175.842 108.263 175.842Z" fill="#042548"/>
<path fill-rule="evenodd" clip-rule="evenodd" d="M108 164C138.376 164 163 139.376 163 109C163 78.6243 138.376 54 108 54C77.6243 54 53 78.6243 53 109C53 139.376 77.6243 164 108 164ZM108 160.489C136.437 160.489 159.489 137.437 159.489 109C159.489 80.5632 136.437 57.5107 108 57.5107C79.5632 57.5107 56.5107 80.5632 56.5107 109C56.5107 137.437 79.5632 160.489 108 160.489Z" fill="url(#paint0_linear_1546_1954)"/>
<path d="M108.263 179.351C69.569 179.351 38.0874 147.869 38.0874 109.175C38.0874 70.4816 69.569 39 108.263 39C146.957 39 178.438 70.4816 178.438 109.175C178.438 147.869 146.957 179.351 108.263 179.351ZM108.263 46.0175C73.4374 46.0175 45.1049 74.35 45.1049 109.175C45.1049 144.001 73.4374 172.333 108.263 172.333C143.088 172.333 171.421 144.001 171.421 109.175C171.421 74.35 143.088 46.0175 108.263 46.0175Z" fill="url(#paint1_linear_1546_1954)"/>
<path d="M108.263 154.79C133.455 154.79 153.877 134.367 153.877 109.175C153.877 83.9836 133.455 63.5615 108.263 63.5615C83.0708 63.5615 62.6487 83.9836 62.6487 109.175C62.6487 134.367 83.0708 154.79 108.263 154.79Z" fill="#042548"/>
<path fill-rule="evenodd" clip-rule="evenodd" d="M118.115 73.2999C111.927 69.7272 104.303 69.7272 98.1153 73.2999L82.2307 82.4708C76.0427 86.0435 72.2307 92.646 72.2307 99.7913V118.133C72.2307 125.279 76.0427 131.881 82.2307 135.454L98.1153 144.625C104.303 148.197 111.927 148.197 118.115 144.625L134 135.454C140.188 131.881 144 125.279 144 118.133V99.7913C144 92.646 140.188 86.0435 134 82.4708L118.115 73.2999ZM118.115 81.9185C111.927 78.3458 104.303 78.3458 98.1152 81.9185L89.6945 86.7801C83.5065 90.3528 79.6945 96.9553 79.6945 104.101V113.824C79.6945 120.969 83.5065 127.572 89.6945 131.144L98.1152 136.006C104.303 139.579 111.927 139.579 118.115 136.006L126.536 131.144C132.724 127.572 136.536 120.969 136.536 113.824V104.101C136.536 96.9553 132.724 90.3528 126.536 86.7801L118.115 81.9185Z" fill="url(#paint2_linear_1546_1954)"/>
<path d="M103.115 91.6704C106.209 89.8841 110.021 89.8841 113.115 91.6704L120.59 95.9863C123.684 97.7726 125.59 101.074 125.59 104.647V113.278C125.59 116.851 123.684 120.152 120.59 121.938L113.115 126.254C110.021 128.041 106.209 128.041 103.115 126.254L95.64 121.938C92.546 120.152 90.64 116.851 90.64 113.278V104.647C90.64 101.074 92.546 97.7726 95.64 95.9863L103.115 91.6704Z" fill="url(#paint3_linear_1546_1954)"/>
<path d="M24.0522 144.263H136.333V235.491H25.0522C24.5 235.491 24.0522 235.044 24.0522 234.491V144.263Z" fill="url(#paint4_linear_1546_1954)"/>
<path d="M134.333 144.263H183.456V234.491C183.456 235.044 183.008 235.491 182.456 235.491H134.333V144.263Z" fill="url(#paint5_linear_1546_1954)"/>
<path d="M5.46467 170.803C5.04839 171.469 5.52724 172.333 6.31267 172.333H115.681C116.37 172.333 117.011 171.978 117.377 171.393L134.333 144.263H22.0523L5.46467 170.803Z" fill="#64DBC5"/>
<path d="M200.043 170.803C200.46 171.469 199.981 172.333 199.195 172.333H152.985C152.296 172.333 151.655 171.978 151.289 171.393L134.333 144.263H183.456L200.043 170.803Z" fill="#E768F7"/>
<path d="M22.5 71C21.756 71 21.154 71.603 21.154 72.347V73.256C21.154 73.999 21.756 74.603 22.5 74.603C23.244 74.603 23.846 73.999 23.846 73.256V72.348C23.846 71.603 23.244 71 22.5 71ZM22.5 84.398C21.756 84.398 21.154 85.001 21.154 85.745V86.652C21.154 87.396 21.756 88 22.5 88C23.244 88 23.846 87.396 23.846 86.652V85.745C23.846 85.001 23.244 84.398 22.5 84.398ZM26.917 76.431C27.262 76.431 27.607 76.3 27.87 76.036L28.51 75.396C29.036 74.87 29.036 74.016 28.51 73.491C27.985 72.964 27.133 72.964 26.608 73.488L25.966 74.13C25.44 74.656 25.44 75.51 25.966 76.035C26.228 76.299 26.573 76.431 26.918 76.431H26.917ZM17.131 82.963L16.491 83.603C15.965 84.129 15.964 84.983 16.489 85.509C16.752 85.773 17.097 85.904 17.442 85.904C17.786 85.904 18.13 85.773 18.393 85.51L19.035 84.87C19.56 84.344 19.561 83.49 19.035 82.964C18.51 82.438 17.658 82.437 17.131 82.964V82.963ZM29.654 78.153H28.746C28.004 78.153 27.4 78.756 27.4 79.5C27.4 80.244 28.004 80.847 28.746 80.847H29.654C30.398 80.847 31 80.244 31 79.5C31 78.756 30.398 78.153 29.654 78.153ZM17.6 79.5C17.6 78.756 16.997 78.153 16.254 78.153H15.346C14.602 78.153 14 78.756 14 79.5C14 80.244 14.602 80.847 15.346 80.847H16.254C16.997 80.847 17.6 80.244 17.6 79.5ZM27.87 82.963C27.343 82.437 26.49 82.438 25.964 82.963C25.44 83.491 25.44 84.343 25.966 84.87L26.608 85.51C26.87 85.773 27.215 85.904 27.559 85.904C27.903 85.904 28.249 85.773 28.512 85.509C29.036 84.982 29.036 84.129 28.51 83.603L27.869 82.963H27.87ZM17.13 76.036C17.394 76.3 17.738 76.431 18.082 76.431C18.426 76.431 18.772 76.299 19.035 76.035C19.56 75.509 19.559 74.656 19.034 74.13L18.392 73.488C17.866 72.964 17.014 72.964 16.488 73.491C15.963 74.017 15.964 74.87 16.489 75.396L17.13 76.036Z" fill="#FFB657"/>
<path d="M129.041 0.618091L132.176 6.35141C132.286 6.55109 132.449 6.71355 132.649 6.82354L138.382 9.95928C139.206 10.4094 139.206 11.5906 138.382 12.0407L132.649 15.1765C132.449 15.2865 132.286 15.4489 132.176 15.6486L129.041 21.3819C128.591 22.206 127.409 22.206 126.959 21.3819L123.824 15.6486C123.714 15.4489 123.551 15.2865 123.351 15.1765L117.618 12.0407C116.794 11.5906 116.794 10.4094 117.618 9.95928L123.351 6.82354C123.551 6.71524 123.714 6.55109 123.824 6.35141L126.959 0.618091C127.409 -0.20603 128.591 -0.20603 129.041 0.618091Z" fill="#1094FF"/>
<path d="M41.4731 48.281L42.8984 50.887C42.9484 50.9778 43.0222 51.0516 43.113 51.1016L45.719 52.5269C46.0936 52.7316 46.0936 53.2684 45.719 53.4731L43.113 54.8984C43.0222 54.9484 42.9484 55.0222 42.8984 55.113L41.4731 57.719C41.2685 58.0936 40.7315 58.0936 40.5269 57.719L39.1016 55.113C39.0516 55.0222 38.9778 54.9484 38.887 54.8984L36.281 53.4731C35.9063 53.2684 35.9063 52.7316 36.281 52.5269L38.887 51.1016C38.9778 51.0524 39.0516 50.9778 39.1016 50.887L40.5269 48.281C40.7315 47.9063 41.2685 47.9063 41.4731 48.281Z" fill="#084A90"/>
<path d="M196.757 106.45L199.037 110.619C199.117 110.764 199.236 110.883 199.381 110.963L203.55 113.243C204.15 113.57 204.15 114.43 203.55 114.757L199.381 117.037C199.236 117.117 199.117 117.236 199.037 117.381L196.757 121.55C196.43 122.15 195.57 122.15 195.243 121.55L192.963 117.381C192.883 117.236 192.764 117.117 192.619 117.037L188.45 114.757C187.85 114.43 187.85 113.57 188.45 113.243L192.619 110.963C192.764 110.884 192.883 110.764 192.963 110.619L195.243 106.45C195.57 105.85 196.43 105.85 196.757 106.45Z" fill="#084A90"/>
<path d="M153.5 62C161.508 62 168 55.5081 168 47.5C168 39.4919 161.508 33 153.5 33C145.492 33 139 39.4919 139 47.5C139 55.5081 145.492 62 153.5 62Z" fill="#000A16" stroke="url(#paint6_linear_1546_1954)" stroke-width="3"/>
<path d="M153.511 38.5418L161.151 51.7058H145.869L153.511 38.5418ZM153.511 42.8908L149.638 49.5408H157.381L153.511 42.8908Z" fill="#0B76FF"/>
<g style="mix-blend-mode:lighten">
<path d="M153.508 56.0737L145.868 42.9097H161.15L153.508 56.0737ZM153.508 51.7257L157.381 45.0747H149.638L153.508 51.7247V51.7257Z" fill="#00E3C2"/>
</g>
<path d="M149.118 39.7196L162.317 47.3L149.082 54.941L149.118 39.7196ZM151.293 43.486L151.264 51.1816L157.969 47.3101L151.293 43.486Z" fill="#25C0FF"/>
<g style="mix-blend-mode:lighten">
<path d="M157.882 54.9041L144.683 47.3237L157.918 39.6827L157.882 54.9041ZM155.708 51.1386L155.736 43.4422L149.031 47.3137L155.707 51.1377L155.708 51.1386Z" fill="#FF51FF"/>
</g>
<path d="M38.5 130C44.299 130 49 125.299 49 119.5C49 113.701 44.299 109 38.5 109C32.701 109 28 113.701 28 119.5C28 125.299 32.701 130 38.5 130Z" fill="#000A16" stroke="url(#paint7_linear_1546_1954)" stroke-width="2"/>
<path d="M38.5079 113.013L44.0403 122.546H32.974L38.5079 113.013ZM38.5079 116.162L35.7033 120.978H41.3103L38.5079 116.162Z" fill="#0B76FF"/>
<g style="mix-blend-mode:lighten">
<path d="M38.5056 125.708L32.9732 116.176H44.0394L38.5056 125.708ZM38.5056 122.56L41.3102 117.744H35.7032L38.5056 122.559V122.56Z" fill="#00E3C2"/>
</g>
<path d="M35.3266 113.866L44.8841 119.355L35.3005 124.888L35.3266 113.866ZM36.9013 116.593L36.8802 122.166L41.736 119.363L36.9013 116.593Z" fill="#25C0FF"/>
<g style="mix-blend-mode:lighten">
<path d="M41.6732 124.862L32.1157 119.372L41.6994 113.839L41.6732 124.862ZM40.099 122.135L40.1197 116.562L35.2639 119.365L40.0986 122.134L40.099 122.135Z" fill="#FF51FF"/>
</g>
<path d="M89 28.5C89 34.299 84.299 39 78.5 39C72.701 39 68 34.299 68 28.5C68 22.701 72.701 18 78.5 18C84.299 18 89 22.701 89 28.5Z" fill="url(#paint8_radial_1546_1954)" stroke="#00F6D2" stroke-width="2"/>
<path fill-rule="evenodd" clip-rule="evenodd" d="M78.5265 22.3077L78.5139 22.3293L78.5012 22.3077V22.3508L75.7492 27.0484L72.3077 25.5746V28.8409L74.7275 28.7925L72.3077 32.9231H78.5H78.5277H84.72L82.2901 28.7752L85.5769 28.8409V25.5746L81.4504 27.3418L78.5265 22.3508V22.3077ZM79.8693 28.0189L78.5139 25.6665L77.328 27.7246L77.9626 27.9963L78.5004 27.0407V27.0129L78.5082 27.0268L78.5161 27.0129V27.0407L79.2225 28.2959L79.8693 28.0189ZM77.5462 28.7362L76.5485 30.509L78.5156 30.5052L78.5161 30.5052L80.468 30.509L79.4604 28.7187L80.282 28.7351L81.6741 31.1509L78.5277 31.1498H78.5L75.3537 31.1509L76.7357 28.7524L77.5462 28.7362Z" fill="white"/>
<path d="M173.5 140.5C173.5 148.784 166.784 155.5 158.5 155.5C150.216 155.5 143.5 148.784 143.5 140.5C143.5 132.216 150.216 125.5 158.5 125.5C166.784 125.5 173.5 132.216 173.5 140.5Z" fill="url(#paint9_radial_1546_1954)" stroke="#00F6D2" stroke-width="3"/>
<path fill-rule="evenodd" clip-rule="evenodd" d="M158.538 131.615L158.52 131.646L158.502 131.615V131.677L154.553 138.417L149.615 136.303V140.989L153.087 140.92L149.615 146.846H158.5H158.54H167.424L163.938 140.895L168.654 140.989V136.303L162.733 138.838L158.538 131.677V131.615ZM160.465 139.81L158.52 136.435L156.818 139.387L157.729 139.777L158.501 138.406V138.366L158.512 138.386L158.523 138.366V138.406L159.537 140.207L160.465 139.81ZM157.131 140.839L155.7 143.383L158.522 143.377L158.523 143.377L161.323 143.382L159.878 140.814L161.057 140.837L163.054 144.303L158.54 144.302H158.5L153.986 144.303L155.969 140.862L157.131 140.839Z" fill="white"/>
<defs>
<linearGradient id="paint0_linear_1546_1954" x1="108" y1="164" x2="108" y2="54" gradientUnits="userSpaceOnUse">
<stop stop-color="#ADDCFF"/>
<stop offset="0.5028" stop-color="#EAF6FF"/>
<stop offset="1" stop-color="#EAF6FF"/>
</linearGradient>
<linearGradient id="paint1_linear_1546_1954" x1="108.263" y1="179.351" x2="108.263" y2="39" gradientUnits="userSpaceOnUse">
<stop stop-color="#ADDCFF"/>
<stop offset="0.5028" stop-color="#EAF6FF"/>
<stop offset="1" stop-color="#EAF6FF"/>
</linearGradient>
<linearGradient id="paint2_linear_1546_1954" x1="108.115" y1="147.304" x2="108.115" y2="70.6204" gradientUnits="userSpaceOnUse">
<stop stop-color="#ADDCFF"/>
<stop offset="0.5028" stop-color="#EAF6FF"/>
<stop offset="1" stop-color="#EAF6FF"/>
</linearGradient>
<linearGradient id="paint3_linear_1546_1954" x1="108.115" y1="127.594" x2="108.115" y2="90.3307" gradientUnits="userSpaceOnUse">
<stop stop-color="#ADDCFF"/>
<stop offset="0.5028" stop-color="#EAF6FF"/>
<stop offset="1" stop-color="#EAF6FF"/>
</linearGradient>
<linearGradient id="paint4_linear_1546_1954" x1="24" y1="147" x2="80.1926" y2="235.491" gradientUnits="userSpaceOnUse">
<stop stop-color="#65DCC5"/>
<stop offset="1" stop-color="#307CF5"/>
</linearGradient>
<linearGradient id="paint5_linear_1546_1954" x1="157" y1="230.5" x2="181" y2="149" gradientUnits="userSpaceOnUse">
<stop stop-color="#E668F7"/>
<stop offset="1" stop-color="#2F7AF6"/>
</linearGradient>
<linearGradient id="paint6_linear_1546_1954" x1="153.5" y1="33" x2="153.5" y2="62" gradientUnits="userSpaceOnUse">
<stop stop-color="#A17DFF"/>
<stop offset="1" stop-color="#6F7FFF"/>
</linearGradient>
<linearGradient id="paint7_linear_1546_1954" x1="38.5" y1="109" x2="38.5" y2="130" gradientUnits="userSpaceOnUse">
<stop stop-color="#A17DFF"/>
<stop offset="1" stop-color="#6F7FFF"/>
</linearGradient>
<radialGradient id="paint8_radial_1546_1954" cx="0" cy="0" r="1" gradientUnits="userSpaceOnUse" gradientTransform="translate(78.5 28.5) scale(11.5)">
<stop stop-color="#008471"/>
<stop offset="1" stop-color="#103051"/>
</radialGradient>
<radialGradient id="paint9_radial_1546_1954" cx="0" cy="0" r="1" gradientUnits="userSpaceOnUse" gradientTransform="translate(158.5 140.5) scale(16.5)">
<stop stop-color="#008471"/>
<stop offset="1" stop-color="#103051"/>
</radialGradient>
</defs>
</svg>
