<svg width="20" height="20" viewBox="0 0 20 20" fill="none" xmlns="http://www.w3.org/2000/svg">
<path d="M12.3759 10L19.5061 2.8693C20.1624 2.21291 20.1624 1.14869 19.5061 0.492389C18.8497 -0.164004 17.7857 -0.164004 17.1294 0.492389L9.99913 7.62323L2.8689 0.492295C2.21256 -0.164098 1.14852 -0.164098 0.492183 0.492295C-0.164061 1.14869 -0.164061 2.21291 0.492183 2.86921L7.62242 9.99995L0.492183 17.1308C-0.164061 17.7872 -0.164061 18.8514 0.492183 19.5077C1.14852 20.1641 2.21256 20.1641 2.8689 19.5077L9.99913 12.3769L17.1294 19.5077C17.7856 20.1641 18.8497 20.1641 19.5061 19.5077C20.1624 18.8513 20.1624 17.7872 19.5061 17.1308L12.3759 10Z" fill="white"/>
</svg>
