<svg width="20" height="20" viewBox="0 0 20 20" fill="none" xmlns="http://www.w3.org/2000/svg">
<g clip-path="url(#clip0_1489_1396)">
<path d="M18.6957 3.89563H17.2398C17.4319 3.59172 17.5586 3.25059 17.5947 2.88981C17.7102 1.7368 17.1029 0.703205 16.0691 0.244963C15.1189 -0.176248 14.0511 -0.00406022 13.2821 0.693362L11.4438 2.35938C11.0858 1.96781 10.5712 1.72172 10 1.72172C9.42781 1.72172 8.91234 1.9686 8.55426 2.36137L6.71363 0.693166C5.94344 -0.0042555 4.87602 -0.175779 3.92621 0.245198C2.8927 0.703479 2.28535 1.73742 2.40113 2.89039C2.43734 3.2509 2.56398 3.59188 2.75598 3.89563H1.30434C0.583945 3.89563 0 4.47961 0 5.19996V7.15649C0 7.51664 0.291992 7.80867 0.652187 7.80867H19.3479C19.708 7.80867 20 7.51668 20 7.15649V5.19996C20 4.47961 19.4161 3.89563 18.6957 3.89563ZM8.04348 3.67824V3.89563H4.97539C4.16477 3.89563 3.5268 3.13992 3.72926 2.29594C3.81844 1.92426 4.08672 1.60742 4.43371 1.44703C4.9102 1.2268 5.43801 1.2975 5.8382 1.65973L8.04402 3.65903C8.04391 3.66547 8.04348 3.6718 8.04348 3.67824ZM16.3005 2.71664C16.252 3.39449 15.6396 3.89571 14.9601 3.89571H11.9565V3.67832C11.9565 3.67063 11.9561 3.66301 11.956 3.65531C12.4557 3.20235 13.5397 2.21985 14.1276 1.68692C14.4618 1.38406 14.9293 1.2427 15.3615 1.3716C15.9817 1.5566 16.3459 2.08403 16.3005 2.71664Z" fill="white"/>
<path d="M1.30469 9.11304V18.6783C1.30469 19.3987 1.88863 19.9826 2.60902 19.9826H8.69598V9.11304H1.30469Z" fill="white"/>
<path d="M11.3047 9.11304V19.9826H17.3916C18.112 19.9826 18.696 19.3987 18.696 18.6783V9.11304H11.3047Z" fill="white"/>
</g>
<defs>
<clipPath id="clip0_1489_1396">
<rect width="20" height="20" fill="white"/>
</clipPath>
</defs>
</svg>
