<svg width="50" height="50" viewBox="0 0 50 50" xmlns="http://www.w3.org/2000/svg">
    <g fill="none" fill-rule="evenodd">
        <circle fill="#042548" cx="25" cy="25" r="25"/>
        <g fill-rule="nonzero">
            <path d="m11.819 19.08 18.864-5.043a1.126 1.126 0 0 1 1.368.782l3.734 13.86a1.102 1.102 0 0 1-.801 1.348L16.12 35.071a1.126 1.126 0 0 1-1.369-.782l-3.714-13.86a1.105 1.105 0 0 1 .782-1.348z" fill="#FFF"/>
            <path d="m13.402 20.195 16.499-4.398a.884.884 0 0 1 1.056.606l3.088 11.474a.854.854 0 0 1-.606 1.036l-16.498 4.399a.884.884 0 0 1-1.056-.606L12.796 21.23a.825.825 0 0 1 .606-1.036z" fill="#00BFE7"/>
            <path d="M15.24 18.885h19.646c.625 0 1.114.508 1.114 1.114v14.564c0 .625-.508 1.114-1.114 1.114H15.24a1.114 1.114 0 0 1-1.114-1.114V19.999c0-.606.508-1.114 1.114-1.114z" fill="#FFF"/>
            <path d="M16.55 20.449h17.065c.47 0 .86.39.86.86v11.964c0 .469-.39.86-.86.86H16.55a.868.868 0 0 1-.86-.86V21.309c0-.47.371-.86.86-.86z" fill="#0976FF"/>
            <path d="M15.69 21.31v4.182c.195.02.39.04.586.04a4.497 4.497 0 0 0 4.496-4.497c0-.195-.02-.39-.039-.586H16.55a.855.855 0 0 0-.86.86z" fill="#FFB900"/>
            <path d="M17.117 30.028c-.49 0-.978.039-1.427.097v3.148c0 .469.39.86.86.86h6.51c.038-.176.058-.333.058-.509 0-1.994-2.678-3.596-6.001-3.596z" fill="#00BCA1"/>
            <path d="M30.742 28.268c-5.357 0-9.716 2.62-9.774 5.865h12.628c.469 0 .86-.391.86-.86v-4.555a16.106 16.106 0 0 0-3.714-.45z" fill="#00F6D2"/>
        </g>
    </g>
</svg>
