<svg width="16" height="17" viewBox="0 0 16 17" fill="none" xmlns="http://www.w3.org/2000/svg">
<path d="M9.99999 8.50002C11.4733 8.50002 12.6667 7.30669 12.6667 5.83335C12.6667 4.36002 11.4733 3.16669 9.99999 3.16669C8.52666 3.16669 7.33332 4.36002 7.33332 5.83335C7.33332 7.30669 8.52666 8.50002 9.99999 8.50002ZM3.99999 7.16669V5.83335C3.99999 5.46669 3.69999 5.16669 3.33332 5.16669C2.96666 5.16669 2.66666 5.46669 2.66666 5.83335V7.16669H1.33332C0.966656 7.16669 0.666656 7.46669 0.666656 7.83335C0.666656 8.20002 0.966656 8.50002 1.33332 8.50002H2.66666V9.83335C2.66666 10.2 2.96666 10.5 3.33332 10.5C3.69999 10.5 3.99999 10.2 3.99999 9.83335V8.50002H5.33332C5.69999 8.50002 5.99999 8.20002 5.99999 7.83335C5.99999 7.46669 5.69999 7.16669 5.33332 7.16669H3.99999ZM9.99999 9.83335C8.21999 9.83335 4.66666 10.7267 4.66666 12.5V13.1667C4.66666 13.5334 4.96666 13.8334 5.33332 13.8334H14.6667C15.0333 13.8334 15.3333 13.5334 15.3333 13.1667V12.5C15.3333 10.7267 11.78 9.83335 9.99999 9.83335Z" fill="#042548"/>
</svg>
