<svg width="60" height="60" viewBox="0 0 60 60" xmlns="http://www.w3.org/2000/svg">
    <g fill="none" fill-rule="evenodd" opacity=".3">
        <path d="M11.92 47.202a3.88 3.88 0 0 1-1.484-2.152L3.881 20.588a3.896 3.896 0 0 1 2.755-4.772l33.87-9.075a3.896 3.896 0 0 1 4.772 2.755c1.781 5.82 2.882 9.518 3.304 11.092" stroke="#FFF" stroke-width="3.5"/>
        <path d="M55.47 19.04c1.34 0 2.387 1.089 2.387 2.387v31.207c0 1.34-1.089 2.388-2.387 2.388H13.37a2.387 2.387 0 0 1-2.387-2.388V21.427c0-1.298 1.089-2.388 2.387-2.388H55.47zm-2.723 3.35h-36.57a1.832 1.832 0 0 0-1.842 1.844V49.87a1.86 1.86 0 0 0 1.843 1.843h36.569a1.86 1.86 0 0 0 1.843-1.843V24.234a1.86 1.86 0 0 0-1.843-1.843z" fill="#FFF" fill-rule="nonzero"/>
        <path d="M13.424 23.098v7.957c.42.042.838.084 1.257.084 5.32 0 8.402-3.307 8.402-8.627 0-.42-.042-.838-.084-1.257h-7.732a1.832 1.832 0 0 0-1.843 1.843zM17.393 45.059c-1.047 0-2.095.084-3.058.21v5.244a1.86 1.86 0 0 0 1.843 1.843h13.949c.084-.377.126-.712.126-1.09 0-4.272-5.74-6.207-12.86-6.207z" stroke="#FFF" stroke-width="3"/>
        <path d="M50.875 41.289c-11.478 0-20.819 4.113-20.945 11.067h24.683c.743-.559 1.115-1.173 1.115-1.843v-8.589c-2.472-.586-2.047-.635-4.853-.635z" stroke="#FFF" stroke-width="3"/>
    </g>
</svg>
