<svg width="16" height="16" viewBox="0 0 16 16" xmlns="http://www.w3.org/2000/svg">
    <path d="M10.928 2.5a3.08 3.08 0 0 1 2.332 1.04c.58.652.894 1.523.894 2.451 0 1.718-1.146 2.978-2.334 4.1-.66.622-1.421 1.264-2.302 2.007-.446.377-.904.764-1.386 1.179-1.093-.418-1.551-.803-1.995-1.178C4.777 10.952 3.6 9.962 2.782 9 1.919 7.981 1.5 7.03 1.5 5.99c0-.928.314-1.8.894-2.45A3.08 3.08 0 0 1 4.726 2.5c1.016 0 1.888.491 2.536 1.396.124.173.23.349.32.526.134-.153.28-.306.437-.46.953-.937 1.854-1.462 2.909-1.462z" fill-rule="nonzero" stroke="#FFF" fill="none" opacity=".5"/>
</svg>
