<svg width="16" height="16" viewBox="0 0 16 16" xmlns="http://www.w3.org/2000/svg">
    <path d="M5.814 12.482c.512.431 1.041.878 1.604 1.365a.624.624 0 0 0 .818 0c.562-.487 1.091-.933 1.603-1.365.89-.75 1.657-1.399 2.324-2.028 1.294-1.22 2.49-2.606 2.49-4.463 0-1.055-.362-2.044-1.02-2.783A3.574 3.574 0 0 0 10.929 2c-1.174 0-2.192.555-2.943 1.605a5.034 5.034 0 0 0-.158.235 4.979 4.979 0 0 0-.159-.235C6.918 2.555 5.9 2 4.726 2A3.574 3.574 0 0 0 2.02 3.208C1.362 3.948 1 4.936 1 5.991c0 1.147.445 2.205 1.4 3.33.834.983 2.03 1.992 3.414 3.16z" fill="#F93030" fill-rule="nonzero"/>
</svg>
