<svg width="24" height="24" viewBox="0 0 24 24" fill="none" xmlns="http://www.w3.org/2000/svg">
<path fill-rule="evenodd" clip-rule="evenodd" d="M21.4133 8.50994H17.6836C15.6835 8.50994 14.0546 10.1391 14.0547 12.1467C14.0547 14.1467 15.6842 15.7762 17.6842 15.7762H21.4139V18.7106C21.4139 19.3594 20.8887 19.8845 20.24 19.8845H4.35527C3.05026 19.8845 2 18.8264 2 17.5292L2 7.00402C2 5.34717 3.34315 4 5 4H20.2394C20.8883 4 21.4133 4.52524 21.4133 5.17386V8.50994ZM17.6833 9.97697H21.7066C21.8687 9.97697 22 10.1081 22 10.2628V13.9925C22 14.1545 21.8688 14.2859 21.7066 14.2859H17.6833C16.4941 14.2859 15.5289 13.3206 15.5289 12.1314C15.5289 10.9422 16.4941 9.97697 17.6833 9.97697ZM17.2972 12.1392C17.2972 12.6256 17.6911 13.0195 18.1775 13.0195C18.6639 13.0195 19.0578 12.6256 19.0578 12.1392C19.0578 11.6528 18.6639 11.2589 18.1775 11.2589C17.6911 11.2589 17.2972 11.6528 17.2972 12.1392Z" fill="#00F6D2"/>
</svg>
