<svg width="16" height="16" viewBox="0 0 16 16" xmlns="http://www.w3.org/2000/svg">
    <g fill="#00F6D2" fill-rule="nonzero">
        <path d="M1.512 14.488a5.143 5.143 0 0 0 7.284 0 5.127 5.127 0 0 0 1.256-5.231A1698.44 1698.44 0 0 0 15.86 3.45.44.44 0 0 0 16 3.122V.469a.425.425 0 0 0-.14-.328A.425.425 0 0 0 15.53 0h-2.653a.44.44 0 0 0-.328.14c-.244.235-.422.423-.666.657a.455.455 0 0 0-.13.384c.027.263.055.46.083.713-.356.037-.628.065-.993.093a.478.478 0 0 0-.422.422c-.028.357-.056.638-.094.994-.253-.037-.45-.056-.712-.084a.463.463 0 0 0-.516.46v.877h-.863c-.121 0-.243.031-.328.125-.43.431-.735.726-1.166 1.167a5.127 5.127 0 0 0-5.231 1.256 5.143 5.143 0 0 0 0 7.284zm1.322-3.31a1.398 1.398 0 0 1 1.987 0 1.398 1.398 0 0 1 0 1.988 1.398 1.398 0 0 1-1.987 0 1.398 1.398 0 0 1 0-1.987z"/>
        <path d="M1.512 7.204a5.127 5.127 0 0 1 5.231-1.256c.431-.441.735-.736 1.166-1.167.085-.094.207-.125.328-.125H9.1v-.878c0-.281.253-.497.516-.46.262.029.459.048.712.085.038-.356.066-.637.094-.994a.478.478 0 0 1 .422-.422c.365-.028.637-.056.993-.093-.028-.253-.056-.45-.084-.713a.455.455 0 0 1 .131-.384c.244-.234.422-.422.666-.656A.44.44 0 0 1 12.878 0h2.653c.131 0 .244.047.328.14L4.821 11.18a1.398 1.398 0 0 0-1.987 0 1.398 1.398 0 0 0 0 1.987l-1.322 1.322a5.143 5.143 0 0 1 0-7.284z"/>
    </g>
</svg>
