<svg width="16" height="16" viewBox="0 0 16 16" fill="none" xmlns="http://www.w3.org/2000/svg">
<path d="M13.9647 5.53664C13.9579 5.03172 13.8634 4.53182 13.6853 4.0593C13.5309 3.66074 13.295 3.29877 12.9928 2.99653C12.6905 2.69428 12.3286 2.45841 11.93 2.30397C11.4635 2.12888 10.9708 2.0342 10.4727 2.02397C9.83132 1.9953 9.62799 1.9873 7.99999 1.9873C6.37199 1.9873 6.16332 1.9873 5.52665 2.02397C5.02876 2.03427 4.53622 2.12895 4.06999 2.30397C3.67136 2.4583 3.30933 2.69413 3.00707 2.99639C2.70482 3.29865 2.46898 3.66068 2.31465 4.0593C2.13921 4.52539 2.04473 5.01804 2.03532 5.51597C2.00665 6.15797 1.99799 6.3613 1.99799 7.9893C1.99799 9.6173 1.99799 9.8253 2.03532 10.4626C2.04532 10.9613 2.13932 11.4533 2.31465 11.9206C2.46924 12.3191 2.70525 12.681 3.00761 12.9832C3.30997 13.2853 3.67203 13.521 4.07065 13.6753C4.53561 13.8574 5.02823 13.9589 5.52732 13.9753C6.16932 14.004 6.37265 14.0126 8.00065 14.0126C9.62865 14.0126 9.83732 14.0126 10.474 13.9753C10.9721 13.9655 11.4649 13.871 11.9313 13.696C12.3298 13.5414 12.6917 13.3054 12.9939 13.0032C13.2961 12.701 13.532 12.3391 13.6867 11.9406C13.862 11.474 13.956 10.982 13.966 10.4826C13.9947 9.8413 14.0033 9.63797 14.0033 8.0093C14.002 6.3813 14.002 6.17464 13.9647 5.53664ZM7.99599 11.068C6.29332 11.068 4.91399 9.68864 4.91399 7.98597C4.91399 6.2833 6.29332 4.90397 7.99599 4.90397C8.81338 4.90397 9.5973 5.22868 10.1753 5.80667C10.7533 6.38466 11.078 7.16857 11.078 7.98597C11.078 8.80337 10.7533 9.58729 10.1753 10.1653C9.5973 10.7433 8.81338 11.068 7.99599 11.068ZM11.2007 5.50864C11.1063 5.50873 11.0128 5.4902 10.9255 5.45411C10.8383 5.41803 10.759 5.36509 10.6923 5.29834C10.6255 5.23159 10.5726 5.15233 10.5365 5.0651C10.5004 4.97786 10.4819 4.88437 10.482 4.78997C10.482 4.69564 10.5006 4.60223 10.5367 4.51508C10.5728 4.42792 10.6257 4.34874 10.6924 4.28203C10.7591 4.21533 10.8383 4.16242 10.9254 4.12632C11.0126 4.09022 11.106 4.07164 11.2003 4.07164C11.2947 4.07164 11.3881 4.09022 11.4752 4.12632C11.5624 4.16242 11.6416 4.21533 11.7083 4.28203C11.775 4.34874 11.8279 4.42792 11.864 4.51508C11.9001 4.60223 11.9187 4.69564 11.9187 4.78997C11.9187 5.1873 11.5973 5.50864 11.2007 5.50864Z" fill="#00F6D2"/>
<path d="M7.99602 9.98789C9.10169 9.98789 9.99802 9.09156 9.99802 7.98589C9.99802 6.88021 9.10169 5.98389 7.99602 5.98389C6.89034 5.98389 5.99402 6.88021 5.99402 7.98589C5.99402 9.09156 6.89034 9.98789 7.99602 9.98789Z" fill="#00F6D2"/>
</svg>
