<svg width="30" height="30" viewBox="0 0 30 30" fill="none" xmlns="http://www.w3.org/2000/svg">
<rect width="30" height="30" rx="15" fill="black" fill-opacity="0.7"/>
<rect x="5" y="5" width="20" height="20" rx="10" fill="#00F6D2"/>
<path d="M20.7198 10.6582C20.1003 10.2329 18.9655 10.8454 18.4597 11.4396L13.8275 16.8707L11.0598 14.5108C10.4666 14.0042 9.84797 13.9193 9.34135 14.5108C8.83385 15.1032 9.0841 15.7489 9.6756 16.2556L13.0636 19.1667C13.349 19.4105 13.7193 19.5313 14.0935 19.5027C14.2782 19.4883 14.4583 19.4375 14.6235 19.3535C14.7886 19.2694 14.9356 19.1536 15.056 19.0127L20.607 12.5027C21.111 11.9112 21.3393 11.0834 20.7207 10.6582H20.7198Z" fill="#042548"/>
</svg>
