<svg width="16" height="16" viewBox="0 0 16 16" fill="none" xmlns="http://www.w3.org/2000/svg">
<path d="M2.32363 13.6787C2.74167 14.098 3.23835 14.4307 3.7852 14.6576C4.33204 14.8846 4.91831 15.0015 5.51039 15.0015C6.10247 15.0015 6.68874 14.8846 7.23558 14.6576C7.78243 14.4307 8.27911 14.098 8.69715 13.6787C9.28638 13.0925 9.70115 12.3541 9.89521 11.5459C10.0893 10.7377 10.055 9.89143 9.79616 9.10157C11.4943 7.41195 13.1883 5.71823 14.8782 4.02042C14.9175 3.98378 14.9487 3.93932 14.9698 3.88989C14.9909 3.84046 15.0014 3.78716 15.0007 3.73342V1.41203C15.0023 1.35818 14.9921 1.30462 14.971 1.25506C14.9498 1.20551 14.9182 1.16114 14.8782 1.12503C14.842 1.08465 14.7973 1.05269 14.7475 1.03137C14.6976 1.01006 14.6436 0.999917 14.5894 1.00166H12.268C12.2143 1.00091 12.161 1.01143 12.1116 1.03253C12.0621 1.05362 12.0177 1.08484 11.981 1.12416C11.7675 1.32978 11.6118 1.49428 11.3983 1.69903C11.3546 1.74244 11.3217 1.79537 11.3019 1.85367C11.2822 1.91197 11.2762 1.97405 11.2845 2.03504C11.3082 2.26516 11.3327 2.43754 11.3572 2.65891C11.0457 2.69129 10.8077 2.71579 10.4883 2.74029C10.394 2.75082 10.3061 2.79311 10.239 2.86021C10.1719 2.92731 10.1296 3.01523 10.119 3.10954C10.0945 3.42192 10.07 3.66779 10.0368 3.97929C9.81541 3.94692 9.64303 3.93029 9.41378 3.90579C9.35704 3.89926 9.29956 3.90479 9.2451 3.92203C9.19065 3.93928 9.14046 3.96784 9.09782 4.00585C9.05518 4.04386 9.02107 4.09046 8.99771 4.14258C8.97435 4.1947 8.96228 4.25118 8.96228 4.3083V5.07568H8.20715C8.10128 5.07568 7.99453 5.1028 7.92015 5.18505C7.5439 5.56218 7.27702 5.8203 6.8999 6.20618C6.11004 5.94737 5.26381 5.91307 4.4556 6.10713C3.64739 6.30119 2.90899 6.71596 2.32275 7.30519C1.90347 7.72323 1.5708 8.21991 1.34382 8.76676C1.11684 9.3136 1 9.89987 1 10.492C1 11.084 1.11684 11.6703 1.34382 12.2171C1.5708 12.764 1.90347 13.2607 2.32275 13.6787H2.32363ZM3.48038 10.7825C3.59413 10.6676 3.72952 10.5763 3.87873 10.5141C4.02795 10.4519 4.18802 10.4198 4.3497 10.4198C4.51137 10.4198 4.67145 10.4519 4.82066 10.5141C4.96987 10.5763 5.10527 10.6676 5.21901 10.7825C5.33404 10.8962 5.42536 11.0317 5.48769 11.181C5.55001 11.3302 5.58211 11.4904 5.58211 11.6522C5.58211 11.814 5.55001 11.9742 5.48769 12.1235C5.42536 12.2727 5.33404 12.4082 5.21901 12.522C5.10527 12.6369 4.96987 12.7281 4.82066 12.7903C4.67145 12.8526 4.51137 12.8846 4.3497 12.8846C4.18802 12.8846 4.02795 12.8526 3.87873 12.7903C3.72952 12.7281 3.59413 12.6369 3.48038 12.522C3.36548 12.4082 3.27427 12.2728 3.21203 12.1236C3.14978 11.9744 3.11773 11.8143 3.11773 11.6526C3.11773 11.491 3.14978 11.3309 3.21203 11.1817C3.27427 11.0325 3.36548 10.8971 3.48038 10.7833V10.7825Z" fill="#00F6D2"/>
</svg>
