<svg width="16" height="17" viewBox="0 0 16 17" fill="none" xmlns="http://www.w3.org/2000/svg">
<path d="M8.33334 1.16699C6.88294 1.16699 5.46511 1.59708 4.25915 2.40288C3.05319 3.20868 2.11326 4.35399 1.55822 5.69398C1.00318 7.03398 0.857953 8.50847 1.14091 9.93099C1.42387 11.3535 2.1223 12.6602 3.14789 13.6858C4.17347 14.7114 5.48015 15.4098 6.90267 15.6928C8.3252 15.9757 9.79969 15.8305 11.1397 15.2755C12.4797 14.7204 13.625 13.7805 14.4308 12.5745C15.2366 11.3686 15.6667 9.95073 15.6667 8.50033C15.6644 6.55611 14.891 4.69218 13.5163 3.31741C12.1415 1.94264 10.2776 1.16929 8.33334 1.16699ZM2.33334 8.50033C2.3328 7.13978 2.79738 5.81992 3.65 4.75966L12.074 13.1837C11.1923 13.8904 10.1289 14.3334 9.00623 14.4617C7.88361 14.5899 6.7476 14.3982 5.72926 13.9086C4.71093 13.4189 3.85177 12.6514 3.2509 11.6945C2.65003 10.7376 2.33194 9.63026 2.33334 8.50033ZM13.0167 12.241L4.59267 3.81699C5.74415 2.89393 7.19575 2.42822 8.66933 2.5091C10.1429 2.58998 11.5348 3.21177 12.5784 4.25531C13.6219 5.29885 14.2437 6.69076 14.3246 8.16434C14.4054 9.63791 13.9397 11.0895 13.0167 12.241Z" fill="#042548" stroke="#042548" stroke-width="0.6"/>
</svg>
