<svg width="16" height="16" viewBox="0 0 16 16" fill="none" xmlns="http://www.w3.org/2000/svg">
<path d="M13.0886 5.3312C13.0973 5.44787 13.0973 5.56387 13.0973 5.67987C13.0973 9.22987 10.3953 13.3205 5.45731 13.3205C3.93598 13.3205 2.52265 12.8799 1.33331 12.1145C1.54931 12.1392 1.75731 12.1479 1.98198 12.1479C3.19064 12.1508 4.36508 11.7466 5.31598 11.0005C4.75559 10.9904 4.21236 10.8055 3.76214 10.4717C3.31191 10.1379 2.97717 9.6718 2.80465 9.13853C2.97065 9.1632 3.13731 9.17987 3.31198 9.17987C3.55265 9.17987 3.79465 9.14653 4.01931 9.08853C3.41115 8.96574 2.8643 8.6361 2.47173 8.15566C2.07916 7.67521 1.86511 7.07363 1.86598 6.4532V6.41987C2.22398 6.6192 2.63931 6.74387 3.07931 6.76053C2.71071 6.51559 2.40846 6.18322 2.19954 5.79306C1.99062 5.40291 1.88152 4.9671 1.88198 4.52453C1.88198 4.02587 2.01465 3.56853 2.24731 3.16987C2.92207 3.99988 3.76365 4.67891 4.71754 5.16297C5.67143 5.64704 6.71635 5.92534 7.78465 5.97987C7.74331 5.77987 7.71798 5.57253 7.71798 5.36453C7.7178 5.01184 7.78714 4.66257 7.92203 4.33669C8.05692 4.01081 8.25471 3.71472 8.5041 3.46532C8.7535 3.21593 9.04959 3.01814 9.37547 2.88325C9.70135 2.74836 10.0506 2.67902 10.4033 2.6792C11.1766 2.6792 11.8746 3.0032 12.3653 3.5272C12.9665 3.41094 13.543 3.19148 14.0693 2.87853C13.8689 3.49908 13.4492 4.02527 12.8886 4.35853C13.4218 4.29772 13.9429 4.1575 14.4346 3.94253C14.0674 4.47793 13.6123 4.94743 13.0886 5.3312Z" fill="#00F6D2"/>
</svg>
